<svg width="49" height="48" viewBox="0 0 49 48" fill="none" xmlns="http://www.w3.org/2000/svg">
<path d="M41.1732 9.15991C40.1698 8.15307 38.9776 7.35419 37.6648 6.80909C36.3521 6.26399 34.9446 5.9834 33.5232 5.9834C32.1017 5.9834 30.6943 6.26399 29.3815 6.80909C28.0688 7.35419 26.8765 8.15307 25.8732 9.15991L24.3332 10.7199L22.7932 9.15991C21.7898 8.15307 20.5976 7.35419 19.2848 6.80909C17.9721 6.26399 16.5646 5.9834 15.1432 5.9834C13.7217 5.9834 12.3143 6.26399 11.0015 6.80909C9.68878 7.35419 8.49654 8.15307 7.49318 9.15991C3.25318 13.3999 2.99318 20.5599 8.33318 25.9999L24.3332 41.9999L40.3332 25.9999C45.6732 20.5599 45.4132 13.3999 41.1732 9.15991Z" stroke="{=$color}" stroke-width="4" stroke-linecap="round" stroke-linejoin="round"/>
<path d="M24.3329 10.72L18.0729 17C17.2815 17.7979 16.8374 18.8762 16.8374 20C16.8374 21.1238 17.2815 22.2021 18.0729 23C18.8708 23.7914 19.9491 24.2355 21.0729 24.2355C22.1967 24.2355 23.275 23.7914 24.0729 23L28.5929 18.58C29.7162 17.4685 31.2327 16.8451 32.8129 16.8451C34.3931 16.8451 35.9096 17.4685 37.0329 18.58L41.8329 23.38" stroke="{=$color}" stroke-width="4" stroke-linecap="round" stroke-linejoin="round"/>
<path d="M36.333 30L32.333 26" stroke="{=$color}" stroke-width="4" stroke-linecap="round" stroke-linejoin="round"/>
<path d="M30.333 36L26.333 32" stroke="{=$color}" stroke-width="4" stroke-linecap="round" stroke-linejoin="round"/>
</svg>
