<svg width="49" height="49" viewBox="0 0 49 49" fill="none" xmlns="http://www.w3.org/2000/svg">
<path d="M42.667 23.0106C42.6739 25.6503 42.0571 28.2543 40.867 30.6106C39.4559 33.434 37.2865 35.8089 34.6019 37.4691C31.9173 39.1293 28.8235 40.0093 25.667 40.0106C23.0273 40.0174 20.4232 39.4007 18.067 38.2106L6.66699 42.0106L10.467 30.6106C9.27685 28.2543 8.66011 25.6503 8.66699 23.0106C8.66821 19.8541 9.54822 16.7603 11.2084 14.0757C12.8686 11.3911 15.2435 9.22169 18.067 7.81056C20.4232 6.62042 23.0273 6.00367 25.667 6.01056H26.667C30.8357 6.24054 34.7731 8.00008 37.7253 10.9523C40.6775 13.9045 42.437 17.8419 42.667 22.0106V23.0106Z" stroke="{=$color}" stroke-width="4" stroke-linecap="round" stroke-linejoin="round"/>
</svg>
