<svg width="48" height="48" viewBox="0 0 48 48" fill="none" xmlns="http://www.w3.org/2000/svg">
<path d="M38.8781 15.7001C38.7801 16.3441 38.9961 16.9961 39.4561 17.4561L42.5921 20.5921C43.5321 21.5321 44.0041 22.7661 44.0041 24.0001C44.0041 25.2341 43.5341 26.4661 42.5921 27.4081L39.3701 30.6301C39.1536 30.8464 38.8893 31.009 38.5987 31.1049C38.308 31.2008 37.9989 31.2272 37.6961 31.1821C36.7561 31.0421 36.0921 30.2221 35.7601 29.3321C35.4688 28.5457 34.9844 27.8451 34.3515 27.2948C33.7187 26.7446 32.9576 26.3622 32.1383 26.1831C31.319 26.0039 30.4678 26.0335 29.663 26.2694C28.8582 26.5052 28.1256 26.9396 27.5326 27.5326C26.9396 28.1256 26.5052 28.8582 26.2694 29.663C26.0335 30.4678 26.0039 31.319 26.1831 32.1383C26.3622 32.9576 26.7446 33.7187 27.2948 34.3515C27.8451 34.9844 28.5457 35.4688 29.3321 35.7601C30.2241 36.0921 31.0421 36.7541 31.1821 37.6961C31.2274 37.9989 31.201 38.308 31.1051 38.5987C31.0093 38.8895 30.8466 39.1536 30.6301 39.3701L27.4101 42.5901C26.9629 43.0388 26.4314 43.3947 25.8462 43.6374C25.261 43.8801 24.6336 44.0047 24.0001 44.0041C23.367 44.0049 22.74 43.8806 22.1552 43.6383C21.5703 43.3959 21.0391 43.0404 20.5921 42.5921L17.4561 39.4561C17.2294 39.229 16.9527 39.0583 16.6481 38.9575C16.3434 38.8568 16.0194 38.8289 15.7021 38.8761C14.7161 39.0241 14.0221 39.8841 13.6621 40.8121C13.3603 41.5866 12.8703 42.2737 12.2362 42.8112C11.6021 43.3486 10.844 43.7195 10.0306 43.8903C9.21706 44.0611 8.37383 44.0264 7.57714 43.7893C6.78044 43.5523 6.05542 43.1203 5.46765 42.5325C4.87989 41.9448 4.44793 41.2198 4.21086 40.4231C3.97379 39.6264 3.93908 38.7831 4.10987 37.9696C4.28067 37.1562 4.65157 36.3981 5.18904 35.764C5.72651 35.1299 6.41358 34.6398 7.1881 34.3381C8.1161 33.9781 8.9761 33.2841 9.1221 32.2981C9.16953 31.9809 9.14195 31.657 9.04157 31.3524C8.94119 31.0478 8.77081 30.771 8.5441 30.5441L5.4081 27.4081C4.95979 26.9611 4.60426 26.4299 4.36194 25.845C4.11962 25.2602 3.99529 24.6332 3.9961 24.0001C3.9961 22.7661 4.4681 21.5321 5.4081 20.5921L8.4601 17.5401C8.9401 17.0601 9.6221 16.8341 10.2941 16.9341C11.3241 17.0881 12.0481 17.9901 12.4401 18.9541C12.7515 19.7176 13.2469 20.3922 13.8821 20.9179C14.5174 21.4436 15.2728 21.804 16.081 21.9671C16.8893 22.1302 17.7254 22.0908 18.5147 21.8525C19.3041 21.6142 20.0223 21.1844 20.6054 20.6014C21.1884 20.0183 21.6182 19.3001 21.8565 18.5107C22.0948 17.7214 22.1342 16.8853 21.9711 16.077C21.808 15.2688 21.4476 14.5134 20.9219 13.8781C20.3962 13.2429 19.7216 12.7475 18.9581 12.4361C17.9941 12.0441 17.0921 11.3201 16.9381 10.2901C16.8381 9.6181 17.0621 8.9381 17.5441 8.4561L20.5941 5.4061C21.041 4.95839 21.572 4.60337 22.1565 4.3614C22.741 4.11944 23.3675 3.99529 24.0001 3.9961C25.2341 3.9961 26.4681 4.4681 27.4081 5.4081L30.5441 8.5441C31.0041 9.0041 31.6561 9.2201 32.2981 9.1241C33.2841 8.9761 33.9781 8.1161 34.3381 7.1881C34.6398 6.41358 35.1299 5.72651 35.764 5.18904C36.3981 4.65157 37.1562 4.28067 37.9696 4.10987C38.7831 3.93908 39.6264 3.97379 40.4231 4.21086C41.2198 4.44793 41.9448 4.87989 42.5325 5.46765C43.1203 6.05542 43.5523 6.78044 43.7893 7.57714C44.0264 8.37383 44.0611 9.21706 43.8903 10.0306C43.7195 10.844 43.3486 11.6021 42.8112 12.2362C42.2737 12.8703 41.5866 13.3603 40.8121 13.6621C39.8841 14.0221 39.0241 14.7141 38.8781 15.7001Z" stroke="{=$color}" stroke-width="4" stroke-linecap="round" stroke-linejoin="round"/>
</svg>
