<svg width="49" height="48" viewBox="0 0 49 48" fill="none" xmlns="http://www.w3.org/2000/svg">
<path d="M10.266 4.60004C10.2731 4.72571 10.3196 4.84595 10.3988 4.94376C10.4781 5.04156 10.5861 5.11197 10.7075 5.14501C10.829 5.17806 10.9577 5.17208 11.0756 5.12791C11.1935 5.08374 11.2945 5.00362 11.3643 4.89888C11.4341 4.79415 11.4692 4.67012 11.4647 4.54433C11.4601 4.41854 11.4161 4.29737 11.3389 4.19797C11.2617 4.09857 11.1551 4.02598 11.0344 3.99045C10.9136 3.95493 10.7848 3.95828 10.666 4.00004H8.66602C7.60515 4.00004 6.58773 4.42147 5.83759 5.17161C5.08744 5.92176 4.66602 6.93917 4.66602 8.00004V18C4.66602 21.1826 5.9303 24.2349 8.18073 26.4853C10.4312 28.7358 13.4834 30 16.666 30C19.8486 30 22.9009 28.7358 25.1513 26.4853C27.4017 24.2349 28.666 21.1826 28.666 18V8.00004C28.666 6.93917 28.2446 5.92176 27.4944 5.17161C26.7443 4.42147 25.7269 4.00004 24.666 4.00004H22.666C22.6266 4.03944 22.5954 4.08621 22.574 4.13768C22.5527 4.18915 22.5418 4.24432 22.5418 4.30004C22.5418 4.35575 22.5527 4.41092 22.574 4.4624C22.5954 4.51387 22.6266 4.56064 22.666 4.60004C22.7054 4.63944 22.7522 4.67069 22.8037 4.69201C22.8551 4.71333 22.9103 4.7243 22.966 4.7243C23.0217 4.7243 23.0769 4.71333 23.1284 4.69201C23.1798 4.67069 23.2266 4.63944 23.266 4.60004" stroke="{=$color}" stroke-width="4" stroke-linecap="round" stroke-linejoin="round"/>
<path d="M16.666 30V32C16.666 35.1826 17.9303 38.2348 20.1807 40.4853C22.4312 42.7357 25.4834 44 28.666 44C31.8486 44 34.9009 42.7357 37.1513 40.4853C39.4017 38.2348 40.666 35.1826 40.666 32V24" stroke="{=$color}" stroke-width="4" stroke-linecap="round" stroke-linejoin="round"/>
<path d="M40.666 24C42.8752 24 44.666 22.2091 44.666 20C44.666 17.7909 42.8752 16 40.666 16C38.4569 16 36.666 17.7909 36.666 20C36.666 22.2091 38.4569 24 40.666 24Z" stroke="{=$color}" stroke-width="4" stroke-linecap="round" stroke-linejoin="round"/>
</svg>
